<svg width="42" height="68" viewBox="0 0 42 68" fill="none" xmlns="http://www.w3.org/2000/svg">
<path d="M26.3662 1.81883C24.2473 2.88213 20.3331 7.2427 18.6183 10.4083L17.2949 12.8617L14.4001 11.1215C12.6804 10.0057 10.6149 9.30962 9.23306 9.24112C5.86241 9.07824 3.0246 11.6071 1.60231 16.1125C0.277516 20.3131 0.183843 22.1383 0.819206 28.8067C1.821 38.6569 5.47208 46.8679 14.8308 60.4382C20.5228 68.7313 22.5363 69.4397 25.5289 64.1131C32.8154 51.4063 39.9736 31.348 41.0166 20.8464C41.5407 15.4823 40.8728 9.66687 39.4378 6.84979C36.6549 1.36415 31.2214 -0.735151 26.3662 1.81883ZM34.5515 6.25555C36.4519 7.94856 37.8231 12.9783 37.6617 17.7497C37.5055 22.2945 36.0207 29.5193 33.7377 36.5943C30.3939 47.0751 22.2505 63.8721 21.017 62.9798C20.7102 62.8268 17.8363 57.9261 14.5673 52.217C8.81305 42.1354 8.5284 41.5827 6.90509 35.1474C4.92047 27.5576 4.58008 23.2426 5.6553 18.6501C6.86185 13.4068 9.84778 12.308 13.568 15.8257L15.4917 17.6259L14.6661 22.6104C13.3229 30.9851 14.6381 39.0146 17.9839 43.0714C21.5155 47.4789 25.9158 45.5957 26.6284 39.3419C27.1317 34.8843 24.9872 25.8108 22.2225 20.6589L20.1779 16.8023L21.3558 13.9324C22.752 10.5602 26.106 6.38814 28.2769 5.31258C30.3035 4.32741 32.7902 4.69878 34.5515 6.25555ZM22.0362 31.5783C22.8549 35.3296 23.0563 37.2543 22.7196 38.9679C22.3087 41.0933 22.1761 41.2373 21.2844 40.6588C19.1188 39.2537 17.3461 30.8814 18.1367 25.7362L18.558 23.1574L19.6836 24.8078C20.4089 25.8764 21.2941 28.4287 22.0362 31.5783Z" fill="#9769A5"/>
</svg>
