<svg width="45" height="44" viewBox="0 0 45 44" fill="none" xmlns="http://www.w3.org/2000/svg">
<g clip-path="url(#clip0_392_1558)">
<path d="M15.167 14.6673V11.0007C15.167 10.0282 15.5533 9.09556 16.2409 8.40793C16.9286 7.72029 17.8612 7.33398 18.8337 7.33398H26.167C27.1395 7.33398 28.0721 7.72029 28.7597 8.40793C29.4474 9.09556 29.8337 10.0282 29.8337 11.0007V14.6673" stroke="white" stroke-width="3" stroke-linecap="round" stroke-linejoin="round"/>
<path d="M7.83301 18.3327C7.83301 17.3602 8.21932 16.4276 8.90695 15.74C9.59458 15.0523 10.5272 14.666 11.4997 14.666H33.4997C34.4721 14.666 35.4048 15.0523 36.0924 15.74C36.78 16.4276 37.1663 17.3602 37.1663 18.3327V32.9993C37.1663 33.9718 36.78 34.9044 36.0924 35.5921C35.4048 36.2797 34.4721 36.666 33.4997 36.666H11.4997C10.5272 36.666 9.59458 36.2797 8.90695 35.5921C8.21932 34.9044 7.83301 33.9718 7.83301 32.9993V18.3327Z" stroke="white" stroke-width="3" stroke-linecap="round" stroke-linejoin="round"/>
<path d="M18.833 25.666H26.1663" stroke="white" stroke-width="3" stroke-linecap="round" stroke-linejoin="round"/>
<path d="M22.5 22V29.3333" stroke="white" stroke-width="3" stroke-linecap="round" stroke-linejoin="round"/>
</g>
<defs>
<clipPath id="clip0_392_1558">
<rect width="44" height="44" fill="white" transform="translate(0.5)"/>
</clipPath>
</defs>
</svg>
